<svg width="32" height="32" viewBox="0 0 32 32" fill="none" xmlns="http://www.w3.org/2000/svg">
<path d="M27.2494 9.47282C27.0192 9.21471 26.7633 8.9807 26.4857 8.77442C26.5997 7.88122 26.5209 6.97397 26.2546 6.1138C25.9884 5.25362 25.5408 4.46052 24.9421 3.78792C23.4968 2.15902 21.0333 1.3335 17.6192 1.3335H9.33408C8.73552 1.33509 8.15702 1.54943 7.70192 1.93822C7.24683 2.32701 6.94477 2.86493 6.84971 3.4559L3.39657 25.3309C3.34772 25.6241 3.3634 25.9244 3.44251 26.211C3.52163 26.4975 3.66228 26.7633 3.85466 26.9899C4.04704 27.2165 4.28653 27.3984 4.55642 27.523C4.82631 27.6475 5.12013 27.7117 5.41737 27.7111H8.96949L8.86016 28.4051C8.81595 28.6843 8.83277 28.9697 8.90947 29.2418C8.98616 29.5138 9.12091 29.766 9.30444 29.9809C9.48796 30.1959 9.7159 30.3685 9.97255 30.4869C10.2292 30.6053 10.5085 30.6667 10.7911 30.6668H15.1036C15.6623 30.6713 16.2042 30.4764 16.6321 30.1173C17.06 29.7581 17.3458 29.2581 17.4383 28.7072L18.2925 23.3322L18.3068 23.2593H18.7052C24.0815 23.2593 27.4396 20.6017 28.4188 15.5757C28.7175 14.5381 28.7673 13.4448 28.5641 12.3844C28.3609 11.324 27.9105 10.3265 27.2494 9.47282ZM10.4565 18.2723L9.50384 24.3193L9.38876 25.0444H6.14137L9.46299 4.00016H17.6192C20.2 4.00016 22.0424 4.53923 22.9421 5.55224C23.3668 6.04604 23.663 6.63706 23.8044 7.27283C23.9458 7.9086 23.9281 8.56944 23.7527 9.1967L23.7279 9.34635C23.7117 9.44832 23.6969 9.54794 23.67 9.67464C23.4129 11.5799 22.4607 13.3229 20.9965 14.5687C19.3527 15.7118 17.3716 16.2675 15.3731 16.146H12.9421C12.3419 16.144 11.7608 16.3575 11.3046 16.7477C10.8484 17.138 10.5475 17.6789 10.4565 18.2723ZM25.8015 15.0653C25.0671 18.8361 22.8119 20.5926 18.7052 20.5926H18.0606C17.5014 20.5883 16.959 20.7837 16.531 21.1436C16.103 21.5036 15.8175 22.0045 15.726 22.5561L14.8601 27.9884L11.6231 28.0002L12.2607 23.955L13.0755 18.8179H15.3679C15.577 18.8179 15.7618 18.7865 15.9654 18.7793C16.4439 18.7628 16.9209 18.7444 17.369 18.6888C17.6427 18.6547 17.8938 18.5925 18.1561 18.5439C18.5195 18.4767 18.8831 18.4103 19.2242 18.3155C19.478 18.2448 19.7149 18.1539 19.9563 18.068C20.2753 17.9548 20.5894 17.836 20.8864 17.6965C21.1104 17.591 21.3238 17.4737 21.5352 17.3534C21.8165 17.1941 22.089 17.0197 22.3517 16.8311C22.5414 16.6943 22.7275 16.5539 22.905 16.4031C23.1566 16.1863 23.3956 15.9553 23.6209 15.7112C23.7716 15.5505 23.9258 15.3945 24.0653 15.2216C24.2968 14.9267 24.5105 14.6183 24.7053 14.2981C24.8073 14.1351 24.9203 13.9844 25.0141 13.813C25.2842 13.3187 25.5163 12.8047 25.7085 12.2753C25.72 12.2435 25.7366 12.2166 25.7479 12.1846C25.7532 12.1696 25.7611 12.1572 25.7663 12.1421C26.0305 13.0971 26.0427 14.1042 25.8015 15.0653Z" fill="#383838"/>
</svg>
