<svg width="32" height="32" viewBox="0 0 32 32" fill="none" xmlns="http://www.w3.org/2000/svg">
<path d="M25.3333 5.33325H6.66666C5.60579 5.33325 4.58838 5.75468 3.83823 6.50482C3.08808 7.25497 2.66666 8.27239 2.66666 9.33325V22.6666C2.66666 23.7274 3.08808 24.7449 3.83823 25.495C4.58838 26.2452 5.60579 26.6666 6.66666 26.6666H25.3333C26.3942 26.6666 27.4116 26.2452 28.1618 25.495C28.9119 24.7449 29.3333 23.7274 29.3333 22.6666V9.33325C29.3333 8.27239 28.9119 7.25497 28.1618 6.50482C27.4116 5.75468 26.3942 5.33325 25.3333 5.33325ZM24.5693 7.99992L16.8 14.3999C16.578 14.5688 16.3083 14.6634 16.0294 14.6701C15.7505 14.6768 15.4766 14.5953 15.2467 14.4373L7.43066 7.99992H24.5693ZM25.3333 23.9999H6.66666C6.31303 23.9999 5.9739 23.8594 5.72385 23.6094C5.4738 23.3593 5.33332 23.0202 5.33332 22.6666V9.73325L13.6 16.5333C14.2879 17.0483 15.1246 17.3258 15.984 17.3239C16.8734 17.3226 17.7383 17.032 18.448 16.4959L26.6667 9.73325V22.6666C26.6667 23.0202 26.5262 23.3593 26.2761 23.6094C26.0261 23.8594 25.6869 23.9999 25.3333 23.9999Z" fill="#383838"/>
</svg>
