<svg width="32" height="32" viewBox="0 0 32 32" fill="none" xmlns="http://www.w3.org/2000/svg">
<path d="M20 16C20.001 16.1755 19.9674 16.3494 19.901 16.5119C19.8347 16.6743 19.7369 16.8221 19.6134 16.9467L14.28 22.28C14.029 22.5311 13.6884 22.6721 13.3334 22.6721C12.9783 22.6721 12.6378 22.5311 12.3867 22.28C12.1356 22.0289 11.9946 21.6884 11.9946 21.3333C11.9946 20.9783 12.1356 20.6377 12.3867 20.3867L16.7867 16L12.4 11.6133C12.1816 11.3583 12.0674 11.0302 12.0804 10.6946C12.0934 10.359 12.2325 10.0407 12.4699 9.80325C12.7074 9.56579 13.0257 9.42668 13.3613 9.41372C13.6969 9.40076 14.025 9.5149 14.28 9.73333L19.6134 15.0667C19.8597 15.315 19.9985 15.6502 20 16Z" fill="#C61431"/>
</svg>
